<svg id="Capa_1" data-name="Capa 1" xmlns="http://www.w3.org/2000/svg" viewBox="0 0 447.02 281.3"><defs><style>.cls-1{fill:#fff;}</style></defs><title>machine-tatto</title><path class="cls-1" d="M103.75,68.91A11.87,11.87,0,1,0,87.6,73.5a11.88,11.88,0,0,0,16.15-4.59m-2.43-1.35a9.09,9.09,0,1,1-3.51-12.37,9.1,9.1,0,0,1,3.51,12.37"/><path class="cls-1" d="M183.7,174.19a8.93,8.93,0,1,0,1.52-2.71,8.56,8.56,0,0,0-.87,1.29,9,9,0,0,0-.65,1.42m3.15,0a5.68,5.68,0,1,1,2,8,5.86,5.86,0,0,1-2-8"/><path class="cls-1" d="M83.22,84.38A8.54,8.54,0,1,0,95,80.77a8.72,8.72,0,0,0-11.78,3.61m2.5,1.39a5.68,5.68,0,1,1,2,8,5.85,5.85,0,0,1-2-8"/><path class="cls-1" d="M105,211.24a10.55,10.55,0,1,0,14.55-4.46A10.78,10.78,0,0,0,105,211.24m3.09,1.72a7,7,0,1,1,2.49,9.9,7.23,7.23,0,0,1-2.49-9.9"/><path class="cls-1" d="M131.28,192.07a19.81,19.81,0,0,0-.12,2.67,21.38,21.38,0,1,0,41.69-7,21.71,21.71,0,0,0-1.43-3.37,21.35,21.35,0,0,0-29.26-8.67,21,21,0,0,0-4.91,3.73,18.84,18.84,0,0,0-1.6,1.84,21,21,0,0,0-4.37,10.83m7.33-9.18L159,194.29l-5.64,10.12-18.89-10.54a18,18,0,0,1,4.1-11m23.08,17.05,1.49.82-1.9,3.4-1.49-.83Zm-6.32,3.87h0l4.21-7.53.28,1.39-3.08,5.53-.06.11Zm13.41-17.29a7.9,7.9,0,0,1-7.42-.15l-15.63-8.71a18,18,0,0,1,23.05,8.86m-34.13,10.17,18.21,10.15a1.21,1.21,0,0,0,1,.08L158,205.4l3.18,1.77a1.35,1.35,0,0,0,1.83-.52l3.2-5.75a1.34,1.34,0,0,0-.51-1.83l-3.48-1.94-.77-3.78a1.15,1.15,0,0,0-.59-.8L140.3,181.1a16.78,16.78,0,0,1,1.95-1.55l17.48,9.74a11.2,11.2,0,0,0,10.22.37,18,18,0,1,1-35.3,7"/><path class="cls-1" d="M29.39,208.66,40.74,215a1.66,1.66,0,0,0,2.28-.64l3.12-5.6A127.18,127.18,0,0,0,61,218.49l1.07.6c29.33,16.36,76.41,26.41,121.91,6.13l.51-.23,15.2-27.25c3.79-.4,7.42-2.65,10.79-6.73,4.86-5.88,3.88-11.76,2.7-17.46l7.23-13-7.18-4,.21-.52c.14-.33.29-.67.44-1l9.81,5.46-2.61,4.68,5.79,16.71,81.23,45.31,17.27-3.87,2.61-4.68,43.17,24.08c9.28,5.18,25.56,11.94,31,6.56l16.27,7.3-14.76-10c1.71-7.48-12.6-17.77-21.88-22.94l-6.76-3.77-.79.38c-2.93,1.43-7.79.79-12.09-1.61s-7.41-6.2-7.73-9.44l-.08-.87-15.72-8.77,2.61-4.67-5.8-16.73-81.23-45.3L237,136.74l-2,3.57-7.94-4.42A104.37,104.37,0,0,1,256.94,113a1.7,1.7,0,0,0,.93-1.46A1.67,1.67,0,0,0,257,110l-11.6-6.47h0l1-1.87h0l7.58,4.23a1.68,1.68,0,0,0,1.68,0l5.43-3.25a1.67,1.67,0,0,0,.76-1.87l-1.18-4.38a1.72,1.72,0,0,0-.8-1L257,93.73c.89-3.48-1.11-7.59-5-9.77s-8.44-1.72-10.94.87l-3-1.7a1.66,1.66,0,0,0-1.29-.14l-4.34,1.3a1.66,1.66,0,0,0-1.2,1.62l.09,6.34a1.66,1.66,0,0,0,.86,1.44l8.2,4.57-1,1.87h0l-12.34-6.88a1.68,1.68,0,0,0-2.28.64l-14.72,26.4-5.68-3.16a1.69,1.69,0,0,0-2.3.65l-1.89,3.39L183.69,112a1.7,1.7,0,0,0-2.3.66l-2,3.58L139.38,94l2-3.58a1.71,1.71,0,0,0-.66-2.33l-3.37-1.88L144,74.3a1.68,1.68,0,0,0-.65-2.28l-9.59-5.35a1.68,1.68,0,0,0-2.28.65l-6.62,11.86-2.46-1.37a1.71,1.71,0,0,0-2.33.66l-2,3.58-6.6-3.68c.15-1.4.34-2.86.55-4.39.8-6,1.63-12.28.39-17.7-1.48-6.48-5.82-10.49-12.88-11.93A24,24,0,0,0,91.44,44h0l-1.52-3.37,7.91-3.57a1.68,1.68,0,0,0,1-1.37l.62-6.3a1.66,1.66,0,0,0-1.06-1.72l-4.21-1.66a1.68,1.68,0,0,0-1.3,0l-3,1.37C87.53,24.67,83,23.84,79,25.68S72.56,31.44,73.16,35L70,36.43a1.62,1.62,0,0,0-.88,1l-1.54,4.26a1.67,1.67,0,0,0,.59,1.93l5.15,3.7.16.1a1.65,1.65,0,0,0,1.5.07l8.55-3.87h0l1.18,2.62a21.59,21.59,0,0,0-3.48,2.3C75,53.53,71.1,62.35,71,71.52,70.81,97.44,79.5,126,87.62,145.9l-15.4,27.61c-1.67-.91-3.26-1.8-4.7-2.61l-.22-.12,2.89-5.17a1.67,1.67,0,0,0-.65-2.27L58.19,157a1.68,1.68,0,0,0-2.28.65l-4.5,8.08a18.38,18.38,0,0,0-6.06.9c-4.76,1.57-8.53,5.17-10.89,10.41-2.84,6.29-3.66,12.4,0,19.08l-5.72,10.25a1.69,1.69,0,0,0,.65,2.28M86.55,28.93,76.41,33.52a7,7,0,0,1,10.14-4.59m9,5.52L74.47,44l-3.33-2.4.87-2.4,3.83-1.74h0l14-6.34,3.72-1.68,2.38.93ZM253.88,92l-9.72-5.41A7,7,0,0,1,253.88,92m-19.29-.74-.06-4.11L237,86.4l3.69,2.06L254.1,96h0l3.56,2,.66,2.47-3.51,2.1ZM66.45,165.45l-2.1,3.76a34.9,34.9,0,0,0-9.29-3.14l3-5.32Zm22.81-15.62c1.36,3.17,2.68,6.07,3.92,8.64L82,178.52c-2.3-1.08-4.61-2.25-6.83-3.42ZM95,162.1c5.86,11.44,7.93,18.05,6.17,19.65l-.14.15c-1.79,2.07-6.55,1.69-13.77-1.13-.71-.27-1.44-.57-2.18-.89ZM116.39,85l-.63,1.13-4.57-2.55c0-.52,0-1,0-1.48ZM112.5,96.31l2.11,1.18L113.2,100c-.26-1.27-.49-2.52-.7-3.72m-1-7.2,2,1.09L112,92.91c-.19-1.32-.33-2.59-.45-3.8m11.63-6.94L122,84.26l-1.64,2.95-.63,1.13-.63,1.12-.37.66-1.28,2.29-1.15,2.08-1-.53,1.16-2.08,1.28-2.29.37-.67.62-1.12.63-1.13,1.65-3,1.16-2.08Zm11.26,2.36-1.67,3-1.16,2.08-1.65,3-.63,1.13-.63,1.13-.36.66h0L127,97.76l-1.17,2.08-1.66,3-6.84,12.26c-1.23-3.47-2.24-6.9-3.06-10.19l3.23-5.79,1.67-3,1.16-2.07,1.28-2.29.37-.67.62-1.12.63-1.13,1.65-3,1.16-2.09,1.67-3,5.8-10.4,6.67,3.72Zm10.92,69.11c-10.71-6.75-19.28-17.57-25.49-32.15a7.91,7.91,0,0,1,9.26-1.16l52.69,29.39a7.9,7.9,0,0,1,4,7.83c-9.76,3.73-24.65,6-40.45-3.91m43.83,2.47a11.23,11.23,0,0,0-5.74-9.31l-52.7-29.38a11.2,11.2,0,0,0-10.77-.09l7.17-12.86,3.37,1.88a1.73,1.73,0,0,0,2.34-.66l2-3.58,40,22.31-2,3.58a1.69,1.69,0,0,0,.66,2.3l16.37,9.13-1.38,2.47a1.7,1.7,0,0,0,.66,2.3l5.67,3.16-4.6,8.25c-.34.17-.69.34-1.06.5M136.39,92.28l-1.65,3-.63,1.13-.63,1.13-.37.66-1.27,2.29-1.16,2.08-1.88-1L130,99.39l1.28-2.29.37-.66.63-1.13.63-1.13,1.64-3,1.16-2.08,1.88,1Zm41.36,26.94-.63,1.12L137.1,98l.63-1.13Zm20.67,4.9-6.89,12.36-14.9-8.31,2-3.58,2.91-5.21,2-3.57Zm9.86-.87-11.8,21.16-4.2-2.34,1.36-2.46s0,0,0,0l8.54-15.31h0l1.89-3.38ZM273,147.15h0l-24.08,43.18h0l-18.33-10.22,24.08-43.18Zm19.95,11.12h0l-24.08,43.17-7-3.93,24.08-43.18Zm10,5.57h0L278.81,207h0l-7.05-3.92,24.08-43.18h0ZM307.55,223l-15.84-8.82L315.79,171l15.84,8.83Zm-18.76-10.45-7.05-3.93,24.08-43.18,7.05,3.93Zm40.86,3.16L337,202.5l14.23,7.93c.81,4.1,4.36,8.39,9.3,11.14s10.45,3.52,14.36,2.06l5.28,2.94c12.86,7.17,22,16.26,20,19.85s-14.55.57-27.41-6.6ZM312,222.91h0l21.86-39.2,3.76,10.86-1.87,3.37L323.22,220.4ZM251.82,192h0l24.08-43.18,7,3.93h0l-24.08,43.18L251.82,192Zm-25.17-29.81,11.26-20.21,1.27-2.27,11.53-2.57h0l-22.07,39.57h0l-3.87-11.16ZM215.4,152a77.8,77.8,0,0,1,9.38-13.58l8.57,4.78-8,14.35Zm-5.08,2.88-10.16-5.68-.89.75a33.85,33.85,0,0,1-3.44,2.46l1.93-3.46,15.09-27.06L226.76,97l25.89,14.44A108.73,108.73,0,0,0,224,134.19c-.77.85-1.51,1.71-2.24,2.59a79.41,79.41,0,0,0-9.3,13.62c-.53,1-1,2-1.47,3-.21.45-.41.89-.59,1.33l-.08.18M202,193.71l8.67-15.56c.51,3.81.21,7.2-2.71,10.72a16.47,16.47,0,0,1-6,4.84m-156.82,9.9a37.72,37.72,0,0,1-6.85-7.52,19.82,19.82,0,0,1-1.87-3.52c-2.19-5.38-.85-9.9,1.07-14.14s5-7.34,8.89-8.61a14.12,14.12,0,0,1,3.09-.64,18,18,0,0,1,3.8,0,29.78,29.78,0,0,1,9.42,2.92c.81.38,1.64.81,2.47,1.28l.5.28.21.12.19.1c1.51.84,3,1.68,4.52,2.49l3,1.58c2.32,1.23,4.61,2.38,6.83,3.43q1.56.73,3.06,1.38c9,3.87,16.44,5.42,20,1.34,2.75-2.59,2.72-7.55-5.68-23.9-.27-.54-.56-1.1-.84-1.68-.58-1.16-1.17-2.39-1.78-3.69-1.24-2.64-2.54-5.58-3.86-8.76-.54-1.28-1.08-2.62-1.62-4C82,122.72,74.18,95.91,74.38,71.55c.06-8.2,3.5-16,9-20.46,4.33-3.5,9.54-4.67,15.5-3.46,12.94,2.63,11.36,14.47,9.83,25.91-.13,1-.27,2.06-.39,3.06s-.22,1.84-.3,2.73c0,.29,0,.61-.07.93,0,.86-.07,1.84-.05,2.93s.07,2.53.17,4a110.29,110.29,0,0,0,2.73,17.25c.37,1.54.78,3.11,1.22,4.7.91,3.21,2,6.52,3.24,9.85.25.65.5,1.29.77,1.94.16.42.34.84.51,1.26.11.26.22.53.34.79.25.6.52,1.19.78,1.78,6.41,14.25,15.14,24.93,25.94,31.74.85.54,1.71,1,2.55,1.51a46.69,46.69,0,0,0,38.08,3.68c1-.34,2-.69,3-1.06l.36-.14,1.14-.46c1.43-.6,2.76-1.23,4-1.85a54.64,54.64,0,0,0,7.87-4.87l8.72,4.88,3,1.7,3.6,2-3.66,6.56L209.68,173l-11.93,21.4L196,197.53l-13.86,24.85c-44.21,19.48-89.89,9.69-118.4-6.21-.36-.19-.71-.39-1-.59a121.81,121.81,0,0,1-14.91-9.8c-.94-.73-1.81-1.46-2.63-2.17m-12.67,2.94,4-7.23a45.58,45.58,0,0,0,7,7.27l-2.59,4.65Z"/></svg>